<svg width="262" height="46" viewBox="0 0 262 46" fill="none" xmlns="http://www.w3.org/2000/svg">
<path d="M0.76 45H4.6V4.04H28.28V0.199997H0.76V45ZM26.07 45H29.91L34.518 32.84H57.302L61.91 45H65.75L48.79 0.199997H43.03L26.07 45ZM35.99 29L45.27 4.36H46.55L55.83 29H35.99ZM66.0625 45.32H67.9825C73.7425 45.32 77.0065 42.12 77.5825 35.72L80.2705 4.04H99.6625V45H103.503V0.199997H76.7505L73.7425 35.72C73.4225 39.56 71.1825 41.48 67.9825 41.48H66.0625V45.32ZM115.01 45H143.17V41.16H118.85V24.52H141.89V20.68H118.85V4.04H143.17V0.199997H115.01V45ZM153.073 45H156.913V27.4H171.633C179.312 27.4 184.753 21.96 184.753 13.96C184.753 5.96 178.993 0.199997 171.633 0.199997H153.073V45ZM156.913 23.56V4.04H171.633C177.073 4.04 180.913 7.88 180.913 13.96C180.913 19.72 177.073 23.56 171.633 23.56H156.913ZM194.01 45H222.17V41.16H197.85V24.52H220.89V20.68H197.85V4.04H222.17V0.199997H194.01V45ZM229.193 45H234.312L251.913 27.4H257.993V45H261.833V0.199997H243.273C235.593 0.199997 230.153 5.64 230.153 13.64C230.153 21.64 235.913 27.4 243.273 27.4H246.793L229.193 45ZM243.273 23.56C237.833 23.56 233.993 19.72 233.993 13.64C233.993 7.88 237.833 4.04 243.273 4.04H257.993V23.56H243.273Z" fill="#BDBDBD"/>
</svg>
