<svg width="460" height="49" viewBox="0 0 460 49" fill="none" xmlns="http://www.w3.org/2000/svg">
<path d="M21.64 47.64C32.52 47.64 39.24 39.384 41.16 32.28H37C36.04 35.48 31.88 43.8 21.64 43.8C12.04 43.8 4.36 36.12 4.36 24.6C4.36 13.08 12.04 5.4 21.64 5.4C31.56 5.4 35.72 13.08 37 16.6H41.16C39.24 9.88 32.84 1.56 21.64 1.56C9.8 1.56 0.52 10.84 0.52 24.6C0.52 38.36 9.8 47.64 21.64 47.64ZM49.8225 47H77.9825V43.16H53.6625V26.52H76.7025V22.68H53.6625V6.04H77.9825V2.2H49.8225V47ZM87.885 47H91.725V29.4H106.445C114.125 29.4 119.565 23.96 119.565 15.96C119.565 7.96 113.805 2.2 106.445 2.2H87.885V47ZM91.725 25.56V6.04H106.445C111.885 6.04 115.725 9.88 115.725 15.96C115.725 21.72 111.885 25.56 106.445 25.56H91.725ZM139.093 47H142.933V6.04H158.293V2.2H123.733V6.04H139.093V47ZM165.948 47H172.988L195.068 6.36H196.347V47H200.188V2.2H193.148L171.068 42.84H169.788V2.2H165.948V47ZM229.938 48.28H233.778V41.24H234.738C247.538 41.24 254.578 34.2 254.578 23.96C254.578 13.72 247.538 6.68 234.738 6.68H233.778V0.919998H229.938V6.68H228.978C216.178 6.68 209.138 13.72 209.138 23.96C209.138 34.2 216.178 41.24 228.978 41.24H229.938V48.28ZM228.978 37.4C218.418 37.4 212.978 31.96 212.978 23.96C212.978 15.96 218.418 10.52 228.978 10.52C229.298 10.52 229.938 10.52 229.938 10.52V37.4C229.938 37.4 229.298 37.4 228.978 37.4ZM233.778 37.4V10.52C233.778 10.52 234.418 10.52 234.738 10.52C245.298 10.52 250.738 15.96 250.738 23.96C250.738 31.96 245.298 37.4 234.738 37.4C234.418 37.4 233.778 37.4 233.778 37.4ZM263.51 47H270.55L292.63 6.36H293.91V47H297.75V2.2H290.71L268.63 42.84H267.35V2.2H263.51V47ZM309.26 47H313.1V25.24L334.54 47H339.66L317.26 24.28L338.38 2.2H333.26L313.1 23.32V2.2H309.26V47ZM340.008 47H343.848L348.456 34.84H371.24L375.847 47H379.688L362.728 2.2H356.968L340.008 47ZM349.928 31L359.208 6.36H360.488L369.768 31H349.928ZM393.468 47H397.308V6.04H412.668V2.2H378.108V6.04H393.468V47ZM420.323 47H436.963C444.323 47 450.083 41.24 450.083 33.24C450.083 24.92 444.323 19.16 436.963 19.16H424.163V2.2H420.323V47ZM424.163 43.16V23H436.963C442.403 23 446.243 26.84 446.243 33.24C446.243 39.32 442.403 43.16 436.963 43.16H424.163ZM455.843 47H459.683V2.2H455.843V47Z" fill="#BDBDBD"/>
</svg>
