<svg width="183" height="45" viewBox="0 0 183 45" fill="none" xmlns="http://www.w3.org/2000/svg">
<path d="M0.76 45H4.6V24.2H31.16V45H35V0.199997H31.16V20.36H4.6V0.199997H0.76V45ZM41.07 45H44.91L49.518 32.84H72.302L76.91 45H80.75L63.79 0.199997H58.03L41.07 45ZM50.99 29L60.27 4.36H61.55L70.83 29H50.99ZM86.8225 45H136.743V0.199997H132.903V41.16H113.703V0.199997H109.863V41.16H90.6625V0.199997H86.8225V45ZM148.26 45H155.3L177.38 4.36H178.66V45H182.5V0.199997H175.46L153.38 40.84H152.1V0.199997H148.26V45Z" fill="#BDBDBD"/>
</svg>
