<svg width="323" height="47" viewBox="0 0 323 47" fill="none" xmlns="http://www.w3.org/2000/svg">
<path d="M0.48 46H10.72V19.12H12L26.08 46H38.56V1.2H28.32V28.08H27.04L12.96 1.2H0.48V46ZM66.1025 46.64C77.6225 46.64 84.9825 39.28 84.9825 27.44V1.2H74.7425V27.44C74.7425 32.88 70.9025 36.72 66.1025 36.72C61.3025 36.72 57.4625 32.88 57.4625 27.44V1.2H47.2225V27.44C47.2225 39.28 54.5825 46.64 66.1025 46.64ZM93.605 46H103.845V31.6H105.125L117.925 46H130.725L116.965 30.96C116.965 30.96 129.445 30.32 129.445 16.56C129.445 7.28 123.365 1.2 114.725 1.2H93.605V46ZM103.845 22.32V10.8H114.085C116.965 10.8 119.205 13.04 119.205 16.56C119.205 20.08 116.965 22.32 114.085 22.32H103.845ZM145.135 46H155.375V11.12H167.855V1.2H132.655V11.12H145.135V46ZM192.195 46.64C204.355 46.64 213.955 37.04 213.955 23.6C213.955 10.16 204.355 0.559998 192.195 0.559998C180.035 0.559998 170.435 10.16 170.435 23.6C170.435 37.04 180.035 46.64 192.195 46.64ZM192.195 36.72C185.795 36.72 180.675 31.6 180.675 23.6C180.675 15.6 185.795 10.48 192.195 10.48C198.595 10.48 203.715 15.6 203.715 23.6C203.715 31.6 198.595 36.72 192.195 36.72ZM227.7 46H240.82L247.54 19.12H248.82L255.54 46H268.66L279.54 1.2H268.34L261.94 28.4H260.66L253.62 1.2H242.74L235.7 28.4H234.42L228.02 1.2H216.82L227.7 46ZM284.355 46H294.595V19.12H295.875L309.955 46H322.435V1.2H312.195V28.08H310.915L296.835 1.2H284.355V46Z" fill="#333333"/>
</svg>
