<svg width="271" height="47" viewBox="0 0 271 47" fill="none" xmlns="http://www.w3.org/2000/svg">
<path d="M0.757559 46H4.59756V28.4H19.3176C26.9976 28.4 32.4376 22.96 32.4376 14.96C32.4376 6.96 26.6776 1.2 19.3176 1.2H0.757559V46ZM4.59756 24.56V5.04H19.3176C24.7576 5.04 28.5976 8.88 28.5976 14.96C28.5976 20.72 24.7576 24.56 19.3176 24.56H4.59756ZM41.6951 46H45.5351V28.4H50.6551L69.2151 46H74.3351L55.7751 28.4H60.2551C67.6151 28.4 73.3751 22.96 73.3751 14.64C73.3751 6.64 67.9351 1.2 60.2551 1.2H41.6951V46ZM45.5351 24.56V5.04H60.2551C65.6951 5.04 69.5351 8.88 69.5351 14.64C69.5351 20.72 65.6951 24.56 60.2551 24.56H45.5351ZM101.825 46.64C113.665 46.64 122.945 37.36 122.945 23.6C122.945 9.84 113.665 0.559998 101.825 0.559998C89.9851 0.559998 80.7051 9.84 80.7051 23.6C80.7051 37.36 89.9851 46.64 101.825 46.64ZM101.825 42.8C92.2251 42.8 84.5451 35.12 84.5451 23.6C84.5451 12.08 92.2251 4.4 101.825 4.4C111.425 4.4 119.105 12.08 119.105 23.6C119.105 35.12 111.425 42.8 101.825 42.8ZM126.145 46H137.345C142.145 46 144.705 43.44 144.705 38.96V1.2H140.865V38.64C140.865 40.88 139.585 42.16 137.025 42.16H126.145V46ZM155.883 46H184.043V42.16H159.723V25.52H182.763V21.68H159.723V5.04H184.043V1.2H155.883V46ZM212.825 46.64C223.705 46.64 230.425 38.384 232.345 31.28H228.185C227.225 34.48 223.065 42.8 212.825 42.8C203.225 42.8 195.545 35.12 195.545 23.6C195.545 12.08 203.225 4.4 212.825 4.4C222.745 4.4 226.905 12.08 228.185 15.6H232.345C230.425 8.88 224.025 0.559998 212.825 0.559998C200.985 0.559998 191.705 9.84 191.705 23.6C191.705 37.36 200.985 46.64 212.825 46.64ZM251.278 46H255.118V5.04H270.478V1.2H235.918V5.04H251.278V46Z" fill="#BDBDBD"/>
</svg>
