<svg width="396" height="47" viewBox="0 0 396 47" fill="none" xmlns="http://www.w3.org/2000/svg">
<path d="M0.76 46H4.6V24.24L26.04 46H31.16L8.76 23.28L29.88 1.2H24.76L4.6 22.32V1.2H0.76V46ZM54.5775 46.64C66.4175 46.64 75.6975 37.36 75.6975 23.6C75.6975 9.84 66.4175 0.559998 54.5775 0.559998C42.7375 0.559998 33.4575 9.84 33.4575 23.6C33.4575 37.36 42.7375 46.64 54.5775 46.64ZM54.5775 42.8C44.9775 42.8 37.2975 35.12 37.2975 23.6C37.2975 12.08 44.9775 4.4 54.5775 4.4C64.1775 4.4 71.8575 12.08 71.8575 23.6C71.8575 35.12 64.1775 42.8 54.5775 42.8ZM84.9475 46H88.7875V25.2H115.347V46H119.188V1.2H115.347V21.36H88.7875V1.2H84.9475V46ZM142.218 46H146.058V5.04H161.418V1.2H126.858V5.04H142.218V46ZM159.82 46H163.66L168.268 33.84H191.052L195.66 46H199.5L182.54 1.2H176.78L159.82 46ZM169.74 30L179.02 5.36H180.3L189.58 30H169.74ZM205.573 46H209.413V24.24L230.853 46H235.972L213.573 23.28L234.693 1.2H229.573L209.413 22.32V1.2H205.573V46ZM253.28 46H257.12V5.04H272.48V1.2H237.92V5.04H253.28V46ZM280.135 46H283.975V25.2H310.535V46H314.375V1.2H310.535V21.36H283.975V1.2H280.135V46ZM320.445 46H324.285L328.893 33.84H351.677L356.285 46H360.125L343.165 1.2H337.405L320.445 46ZM330.365 30L339.645 5.36H340.925L350.205 30H330.365ZM363.318 46H368.438L386.038 28.4H392.118V46H395.958V1.2H377.398C369.718 1.2 364.278 6.64 364.278 14.64C364.278 22.64 370.038 28.4 377.398 28.4H380.918L363.318 46ZM377.398 24.56C371.958 24.56 368.118 20.72 368.118 14.64C368.118 8.88 371.958 5.04 377.398 5.04H392.118V24.56H377.398Z" fill="#BDBDBD"/>
</svg>
